<svg height="512" viewBox="0 0 64 64" width="512" xmlns="http://www.w3.org/2000/svg" xmlns:xlink="http://www.w3.org/1999/xlink"><linearGradient id="New_Gradient_Swatch" gradientUnits="userSpaceOnUse" x1="32" x2="32" y1="63.476" y2="-.753"><stop offset="0" stop-color="#e93e3a"/><stop offset=".35" stop-color="#ed683c"/><stop offset=".7" stop-color="#f3903f"/><stop offset="1" stop-color="#fdc70c"/></linearGradient><linearGradient id="New_Gradient_Swatch-2" x1="22" x2="22" xlink:href="#New_Gradient_Swatch" y1="63.476" y2="-.753"/><linearGradient id="New_Gradient_Swatch-4" x1="51" x2="51" xlink:href="#New_Gradient_Swatch" y1="63.476" y2="-.753"/><linearGradient id="New_Gradient_Swatch-5" x1="42" x2="42" xlink:href="#New_Gradient_Swatch" y1="63.476" y2="-.753"/><path d="m55 15h-1v-6a3 3 0 0 0 -3-3h-1v-1a3 3 0 0 0 -3-3h-38a3 3 0 0 0 -3 3v50a3 3 0 0 0 3 3h1v1a3 3 0 0 0 3 3h38a3 3 0 0 0 3-3v-18h1a3 3 0 0 0 3-3v-20a3 3 0 0 0 -3-3zm-4-7a1 1 0 0 1 1 1v6h-2v-7zm-37-4h2v2.7l-.168-.252a1.039 1.039 0 0 0 -1.664 0l-.168.252zm-6 51v-50a1 1 0 0 1 1-1h3v6a1 1 0 0 0 1.832.555l1.168-1.755 1.168 1.752a1 1 0 0 0 1.832-.552v-6h29a1 1 0 0 1 1 1v10h-31a3 3 0 0 0 -3 3v20a3 3 0 0 0 3 3h31v14a1 1 0 0 1 -1 1h-38a1 1 0 0 1 -1-1zm44 4a1 1 0 0 1 -1 1h-38a1 1 0 0 1 -1-1v-1h35a3 3 0 0 0 3-3v-14h2zm4-21a1 1 0 0 1 -1 1h-38a1 1 0 0 1 -1-1v-20a1 1 0 0 1 1-1h38a1 1 0 0 1 1 1z" fill="url(#New_Gradient_Swatch)"/><path d="m24 27h-4v-5h-2v12h2v-5h4v5h2v-12h-2z" fill="url(#New_Gradient_Swatch-2)"/><path d="m28 24h3v10h2v-10h3v-2h-8z" fill="url(#New_Gradient_Swatch)"/><path d="m50 22h-2v11a1 1 0 0 0 1 1h5v-2h-4z" fill="url(#New_Gradient_Swatch-4)"/><path d="m45.383 22.076a1 1 0 0 0 -1.09.217l-2.293 2.293-2.293-2.293a1 1 0 0 0 -1.707.707v11h2v-8.586l1.293 1.293a1 1 0 0 0 1.414 0l1.293-1.293v8.586h2v-11a1 1 0 0 0 -.617-.924z" fill="url(#New_Gradient_Swatch-5)"/></svg>