<svg xmlns="http://www.w3.org/2000/svg" width="515.81" height="366.32" viewBox="0 0 515.81 366.32">
  <defs>
    <style>
      .cls-1 {
        opacity: 0.297;
      }

      .cls-2 {
        fill: #faf4ed;
      }

      .cls-3 {
        fill: #f5f5f7;
      }

      .cls-4 {
        fill: #f7f7f7;
      }

      .cls-5, .cls-6 {
        fill: #f7feff;
      }

      .cls-5 {
        opacity: 0;
      }

      .cls-10, .cls-15, .cls-16, .cls-34, .cls-37, .cls-38, .cls-39, .cls-40, .cls-41, .cls-7, .cls-9 {
        fill: #141414;
      }

      .cls-7 {
        opacity: 0.04;
      }

      .cls-11, .cls-12, .cls-13, .cls-14, .cls-35, .cls-36, .cls-42, .cls-43, .cls-8 {
        fill: #fff;
      }

      .cls-9 {
        opacity: 0.05;
      }

      .cls-10 {
        opacity: 0.03;
      }

      .cls-11 {
        opacity: 0.5;
      }

      .cls-12 {
        opacity: 0.303;
      }

      .cls-13 {
        opacity: 0.3;
      }

      .cls-14 {
        opacity: 0.7;
      }

      .cls-15 {
        opacity: 0.02;
      }

      .cls-17, .cls-18, .cls-19, .cls-20, .cls-21, .cls-22, .cls-44, .cls-45, .cls-47, .cls-48, .cls-49, .cls-50, .cls-51 {
        fill: none;
      }

      .cls-17, .cls-18, .cls-19, .cls-20, .cls-21, .cls-22 {
        stroke: #32507c;
      }

      .cls-17, .cls-18, .cls-19, .cls-20, .cls-21, .cls-44, .cls-45, .cls-47, .cls-50 {
        stroke-linecap: round;
      }

      .cls-17, .cls-18, .cls-19, .cls-20, .cls-21, .cls-22, .cls-44, .cls-45, .cls-47, .cls-48, .cls-49, .cls-50 {
        stroke-linejoin: round;
      }

      .cls-17, .cls-18, .cls-19, .cls-20, .cls-21, .cls-22, .cls-44, .cls-45, .cls-46, .cls-47, .cls-48, .cls-49, .cls-50, .cls-51 {
        stroke-miterlimit: 10;
      }

      .cls-17, .cls-22 {
        stroke-width: 3px;
      }

      .cls-18, .cls-47 {
        stroke-width: 6px;
      }

      .cls-19 {
        stroke-width: 1.5px;
      }

      .cls-20, .cls-45 {
        stroke-width: 4px;
      }

      .cls-21, .cls-44, .cls-48 {
        stroke-width: 2px;
      }

      .cls-23 {
        fill: #ebb886;
      }

      .cls-24 {
        fill: #48ffff;
      }

      .cls-25 {
        fill: #d2fffe;
      }

      .cls-26 {
        fill: #e2e2e2;
      }

      .cls-27 {
        fill: #51576b;
      }

      .cls-28 {
        fill: #d1f7c9;
      }

      .cls-29 {
        fill: #fff5de;
      }

      .cls-30 {
        fill: #ff7382;
      }

      .cls-31 {
        fill: #00d3ff;
      }

      .cls-32 {
        fill: #ffe499;
      }

      .cls-33 {
        fill: #bee1e5;
      }

      .cls-34, .cls-35 {
        opacity: 0.35;
      }

      .cls-36, .cls-40 {
        opacity: 0.15;
      }

      .cls-37 {
        opacity: 0.08;
      }

      .cls-38 {
        opacity: 0.12;
      }

      .cls-39 {
        opacity: 0.25;
      }

      .cls-41 {
        opacity: 0.1;
      }

      .cls-42 {
        opacity: 0.75;
      }

      .cls-43 {
        opacity: 0.59;
      }

      .cls-44, .cls-45, .cls-46, .cls-47, .cls-48, .cls-49, .cls-50, .cls-51 {
        stroke: #3a4061;
      }

      .cls-46 {
        fill: #f0f0f2;
      }

      .cls-49, .cls-50, .cls-51 {
        stroke-width: 3.5px;
      }
    </style>
  </defs>
  <g id="workspace-3" transform="translate(-733.25 -216.685)">
    <g id="background" class="cls-1" transform="translate(798.191 218)">
      <g id="colors_1_" transform="translate(0 0.185)">
        <g id="XMLID_2_">
          <g id="Group_1" data-name="Group 1">
            <path id="Path_1" data-name="Path 1" class="cls-2" d="M637.56,181.8v8.9H250.5v-8.9Z" transform="translate(-250.5 -181.8)"/>
            <path id="Path_2" data-name="Path 2" class="cls-3" d="M628.4,189l3.71,14.221H254.2L257.91,189H628.4Z" transform="translate(-249.625 -180.096)"/>
            <path id="Path_3" data-name="Path 3" class="cls-3" d="M628.4,200.5l3.71,14.221H254.2l3.71-14.221H628.4Z" transform="translate(-249.625 -177.375)"/>
            <path id="Path_4" data-name="Path 4" class="cls-3" d="M628.4,212l3.71,14.221H254.2L257.91,212H628.4Z" transform="translate(-249.625 -174.654)"/>
            <path id="Path_5" data-name="Path 5" class="cls-2" d="M570.222,223.5V396.008H417.5V223.5h10.511V385h131.7V223.5h10.511Z" transform="translate(-210.986 -171.933)"/>
            <path id="Path_6" data-name="Path 6" class="cls-4" d="M539.575,245V379.914H502.6v-.495h17.436V301.637h5.317v-8.656H502.6V245h36.975Zm-5.688,117.478v-8.162h-8.162v8.162Zm0-14.716V339.6h-8.162v8.162Zm0-14.716v-8.162h-8.162v8.162Zm0-14.716v-8.162h-8.162v8.162Zm0-14.716v-8.162h-8.162v8.162Zm0-14.716v-8.038h-8.162v8.162h8.162Zm0-14.716v-8.162h-8.162v8.162Zm0-14.592V251.43h-8.162v8.162ZM518.676,288.9v-8.038h-8.162v8.162h8.162Zm0-14.716v-8.162h-8.162v8.162Zm0-14.592V251.43h-8.162v8.162Z" transform="translate(-190.85 -166.846)"/>
            <path id="Path_7" data-name="Path 7" class="cls-5" d="M557.7,223.5v26.587H520.848v47.981H491.911v8.656h5.194v77.783h23.743V385H484.987V235.866H426V223.5Z" transform="translate(-208.974 -171.933)"/>
            <rect id="Rectangle_2" data-name="Rectangle 2" class="cls-6" width="8.162" height="8.162" transform="translate(334.875 187.471)"/>
            <rect id="Rectangle_3" data-name="Rectangle 3" class="cls-6" width="8.162" height="8.162" transform="translate(334.875 172.755)"/>
            <rect id="Rectangle_4" data-name="Rectangle 4" class="cls-6" width="8.162" height="8.162" transform="translate(334.875 158.039)"/>
            <rect id="Rectangle_5" data-name="Rectangle 5" class="cls-6" width="8.162" height="8.162" transform="translate(334.875 143.447)"/>
            <rect id="Rectangle_6" data-name="Rectangle 6" class="cls-6" width="8.162" height="8.162" transform="translate(334.875 128.731)"/>
            <rect id="Rectangle_7" data-name="Rectangle 7" class="cls-6" width="8.162" height="8.162" transform="translate(334.875 114.016)"/>
            <rect id="Rectangle_8" data-name="Rectangle 8" class="cls-6" width="8.162" height="8.162" transform="translate(334.875 99.3)"/>
            <rect id="Rectangle_9" data-name="Rectangle 9" class="cls-6" width="8.162" height="8.162" transform="translate(334.875 84.584)"/>
            <path id="Path_8" data-name="Path 8" class="cls-4" d="M530.867,283.8v8.656H479.3V283.8h51.567Z" transform="translate(-196.363 -157.666)"/>
            <path id="Path_9" data-name="Path 9" class="cls-4" d="M524.679,290.8v77.783H483.5V290.8Z" transform="translate(-195.369 -156.009)"/>
            <rect id="Rectangle_10" data-name="Rectangle 10" class="cls-6" width="8.162" height="8.162" transform="translate(319.664 114.016)"/>
            <rect id="Rectangle_11" data-name="Rectangle 11" class="cls-6" width="8.162" height="8.162" transform="translate(319.664 99.3)"/>
            <rect id="Rectangle_12" data-name="Rectangle 12" class="cls-6" width="8.162" height="8.162" transform="translate(319.664 84.584)"/>
            <path id="Path_10" data-name="Path 10" class="cls-3" d="M503.262,424.417v9.769a5.12,5.12,0,0,1-5.07,5.194H483.6V419.1h14.592A5.23,5.23,0,0,1,503.262,424.417Zm-4.7,4.823a5.688,5.688,0,0,0-11.377,0,5.754,5.754,0,0,0,5.688,5.688A5.6,5.6,0,0,0,498.563,429.24Z" transform="translate(-195.346 -125.652)"/>
            <path id="Path_11" data-name="Path 11" class="cls-3" d="M492.288,422.8a5.688,5.688,0,1,1-5.688,5.688A5.6,5.6,0,0,1,492.288,422.8Z" transform="translate(-194.636 -124.776)"/>
            <path id="Path_12" data-name="Path 12" class="cls-3" d="M487.31,419.1v20.28h-7.42v-4.946a5.531,5.531,0,0,0,3.463-5.194,5.689,5.689,0,1,0-7.914,5.194v4.946H472.47a5.12,5.12,0,0,1-5.07-5.194v-9.769a5.151,5.151,0,0,1,5.07-5.317Z" transform="translate(-199.179 -125.652)"/>
            <path id="Path_13" data-name="Path 13" class="cls-3" d="M482.453,428.388a5.721,5.721,0,0,1-3.463,5.194v1.608h-4.328v-1.608a5.531,5.531,0,0,1-3.463-5.194,5.627,5.627,0,1,1,11.253,0Z" transform="translate(-198.28 -124.8)"/>
            <path id="Path_14" data-name="Path 14" class="cls-3" d="M478.3,436.139v.495a1.429,1.429,0,0,1-1.484,1.484h-1.237a1.429,1.429,0,0,1-1.484-1.484V432.8h4.328v3.339Z" transform="translate(-197.593 -122.41)"/>
            <rect id="Rectangle_13" data-name="Rectangle 13" class="cls-4" width="58.863" height="149.136" transform="translate(217.026 63.933)"/>
            <path id="Path_15" data-name="Path 15" class="cls-2" d="M425.722,223.5V396.008H273V223.5h10.511V385h131.7V223.5Z" transform="translate(-245.176 -171.933)"/>
            <path id="Path_16" data-name="Path 16" class="cls-5" d="M413.2,223.5V385H399.844V252.189H350.75V385H325.276V336.155h6.678a7.178,7.178,0,0,0-7.172-7.172H311.8V266.41H281.5V223.5Zm-67.766,28.195h59.6a7.178,7.178,0,0,0-7.172-7.172h-45.26a6.8,6.8,0,0,0-5.07,2.1A7.3,7.3,0,0,0,345.433,251.695Z" transform="translate(-243.165 -171.933)"/>
            <path id="Path_17" data-name="Path 17" class="cls-4" d="M392.8,247.672H333.2a7,7,0,0,1,2.1-5.07,6.8,6.8,0,0,1,5.07-2.1h45.26A7.178,7.178,0,0,1,392.8,247.672Z" transform="translate(-230.932 -167.911)"/>
            <rect id="Rectangle_14" data-name="Rectangle 14" class="cls-4" width="49.094" height="132.812" transform="translate(107.462 80.256)"/>
            <path id="Path_18" data-name="Path 18" class="cls-4" d="M331.854,315.972H281.4V308.8h43.281A7.177,7.177,0,0,1,331.854,315.972Z" transform="translate(-243.189 -151.75)"/>
            <path id="Path_19" data-name="Path 19" class="cls-4" d="M325.152,314.6v48.846H281.5v-8.78h6.554V343.042H281.5v-9.4h6.554V322.02H281.5v-7.3h43.652Zm-6.8,40.066V343.042h-8.162v11.624Zm0-21.146V321.9h-8.162V333.52Zm-15.087,21.146V343.042H295.1v11.624Zm0-21.146V321.9H295.1V333.52Z" transform="translate(-243.165 -150.378)"/>
            <rect id="Rectangle_15" data-name="Rectangle 15" class="cls-6" width="8.162" height="11.624" transform="translate(67.024 192.541)"/>
            <rect id="Rectangle_16" data-name="Rectangle 16" class="cls-6" width="8.162" height="11.624" transform="translate(67.024 171.518)"/>
            <rect id="Rectangle_17" data-name="Rectangle 17" class="cls-4" width="30.297" height="62.573" transform="translate(38.335 94.477)"/>
            <rect id="Rectangle_18" data-name="Rectangle 18" class="cls-6" width="8.162" height="11.624" transform="translate(51.938 192.541)"/>
            <rect id="Rectangle_19" data-name="Rectangle 19" class="cls-6" width="8.162" height="11.624" transform="translate(51.938 171.518)"/>
            <rect id="Rectangle_20" data-name="Rectangle 20" class="cls-6" width="6.554" height="11.624" transform="translate(38.335 192.541)"/>
            <rect id="Rectangle_21" data-name="Rectangle 21" class="cls-6" width="6.554" height="11.624" transform="translate(38.335 171.518)"/>
          </g>
        </g>
      </g>
      <g id="shadows_1_">
        <path id="Path_20" data-name="Path 20" class="cls-7" d="M489.692,433.388c-2.1-5.812,4.576-9.275,8.038-6.183l-2.6-3.71L489.692,423l-2.226,2.35-.866,2.968.989,3.215Z" transform="translate(-194.636 -124.544)"/>
        <path id="Path_21" data-name="Path 21" class="cls-8" d="M474.092,433.388c-5.194-8.656,5.812-11.624,8.038-6.183l-2.6-3.71L474.092,423l-2.226,2.35L471,428.317l.989,3.215Z" transform="translate(-198.327 -124.544)"/>
        <rect id="Rectangle_22" data-name="Rectangle 22" class="cls-8" width="1.979" height="17.436" transform="translate(288.131 293.634)"/>
        <path id="Path_22" data-name="Path 22" class="cls-8" d="M505.135,420.02H470.346v-.92H468.4v19.662h1.946V423.814a2.123,2.123,0,0,1,2.19-2.07h32.721V420.02Z" transform="translate(-198.329 -125.466)"/>
        <path id="Path_23" data-name="Path 23" class="cls-8" d="M475.9,428.831h0a4.263,4.263,0,0,0-2.6-1.731h0l.866,2.1.495,9.893h1.36V429.45A1.344,1.344,0,0,0,475.9,428.831Z" transform="translate(-197.783 -123.573)"/>
        <rect id="Rectangle_23" data-name="Rectangle 23" class="cls-9" width="25.227" height="2.226" transform="translate(281.577 311.07)"/>
        <rect id="Rectangle_24" data-name="Rectangle 24" class="cls-9" width="5.565" height="2.226" transform="translate(270.818 311.07)"/>
        <path id="Path_24" data-name="Path 24" class="cls-10" d="M477.324,431.167c1.113-2.968,1.855-3.462,1.484-7.667l1.855,3.586-.495,4.081-1.855,1.855-.866,1.36-.247-2.1v-1.113" transform="translate(-196.86 -124.425)"/>
        <path id="Path_25" data-name="Path 25" class="cls-8" d="M377.638,224.984l-108.575-3.833a6.6,6.6,0,0,1-6.183-8.038h0V212h-6.059L254.1,226.221h5.812Z" transform="translate(-249.648 -174.469)"/>
        <path id="Path_26" data-name="Path 26" class="cls-8" d="M377.638,213.484l-108.575-3.834a6.6,6.6,0,0,1-6.183-8.038h0V200.5h-6.059L254.1,214.721h5.812Z" transform="translate(-249.648 -177.19)"/>
        <path id="Path_27" data-name="Path 27" class="cls-8" d="M377.638,201.984l-108.575-3.833a6.6,6.6,0,0,1-6.183-8.038h0V189h-6.059L254.1,203.221h5.812Z" transform="translate(-249.648 -179.911)"/>
        <path id="Path_28" data-name="Path 28" class="cls-7" d="M327.4,189l271.931,6.925a9.648,9.648,0,0,1,9.151,7.3h6.307L611.079,189H327.4Z" transform="translate(-232.304 -179.911)"/>
        <path id="Path_29" data-name="Path 29" class="cls-7" d="M327.4,200.5l271.931,6.925a9.648,9.648,0,0,1,9.151,7.3h6.307l-3.71-14.221H327.4Z" transform="translate(-232.304 -177.19)"/>
        <path id="Path_30" data-name="Path 30" class="cls-7" d="M327.4,212l271.931,6.925a9.648,9.648,0,0,1,9.151,7.3h6.307L611.079,212H327.4Z" transform="translate(-232.304 -174.469)"/>
        <path id="Path_31" data-name="Path 31" class="cls-10" d="M518.842,181.824c-8.533,4.328-33.141,13.726-72.342,8.038l18.8,1.484H591.184V181.7H518.842Z" transform="translate(-204.124 -181.638)"/>
        <path id="Path_32" data-name="Path 32" class="cls-11" d="M340.773,181.83a71.562,71.562,0,0,0-39.572,8.9H250.5v-8.9Z" transform="translate(-250.5 -181.645)"/>
        <path id="Path_33" data-name="Path 33" class="cls-11" d="M397.727,181.835H388.7A54.178,54.178,0,0,1,397.727,181.835Z" transform="translate(-217.8 -181.65)"/>
        <path id="Path_34" data-name="Path 34" class="cls-11" d="M375.752,181.8a69.9,69.9,0,0,0-30.544,8.9H327.4a68.262,68.262,0,0,1,30.544-8.9Z" transform="translate(-232.304 -181.615)"/>
        <path id="Path_35" data-name="Path 35" class="cls-11" d="M412.127,181.835H403.1A54.178,54.178,0,0,1,412.127,181.835Z" transform="translate(-214.393 -181.65)"/>
        <path id="Path_36" data-name="Path 36" class="cls-11" d="M413.98,223.8V384.683h-131.7V223.8H278.2V386.044a2.876,2.876,0,0,0,2.844,2.844H415.588a2.348,2.348,0,0,0,2.35-2.35V223.8Z" transform="translate(-243.946 -171.677)"/>
        <path id="Path_37" data-name="Path 37" class="cls-11" d="M558.48,223.8V384.683h-131.7V223.8H422.7V386.044a2.876,2.876,0,0,0,2.844,2.844H560.088a2.348,2.348,0,0,0,2.35-2.35V223.8Z" transform="translate(-209.755 -171.677)"/>
        <path id="Path_38" data-name="Path 38" class="cls-12" d="M309.124,223,281.3,250.824v42.663l69.374-69.374Z" transform="translate(-243.212 -171.866)"/>
        <path id="Path_39" data-name="Path 39" class="cls-13" d="M368.776,223.8,281.1,311.352v7.172l94.477-94.477Z" transform="translate(-243.26 -171.677)"/>
        <path id="Path_40" data-name="Path 40" class="cls-14" d="M404.279,285.9,319.2,370.979h31.039l53.916-53.916Z" transform="translate(-234.245 -156.983)"/>
        <path id="Path_41" data-name="Path 41" class="cls-13" d="M528.828,223.5,425.2,327.128v31.657l133.925-133.8Z" transform="translate(-209.164 -171.748)"/>
        <path id="Path_42" data-name="Path 42" class="cls-13" d="M451.3,223.942l-25.1,24.98v12.49L464.411,223.2Z" transform="translate(-208.927 -171.819)"/>
        <path id="Path_43" data-name="Path 43" class="cls-14" d="M552.376,270.3,448.5,374.3h51.938L554.6,320.012Z" transform="translate(-203.651 -160.674)"/>
        <rect id="Rectangle_25" data-name="Rectangle 25" class="cls-9" width="43.652" height="5.194" transform="translate(38.335 164.655)"/>
        <rect id="Rectangle_26" data-name="Rectangle 26" class="cls-9" width="49.094" height="5.194" transform="translate(107.462 80.565)"/>
        <rect id="Rectangle_27" data-name="Rectangle 27" class="cls-9" width="41.056" height="5.194" transform="translate(288.131 135.471)"/>
        <path id="Path_44" data-name="Path 44" class="cls-15" d="M386.594,266c-11.13,43.652-39.077,66.159-49.094,73.455v35.12h48.846Z" transform="translate(-229.915 -161.692)"/>
        <path id="Path_45" data-name="Path 45" class="cls-10" d="M281,269.8c5.194,17.931,18.549,27.329,30.915,22.012v26.216H281.742Z" transform="translate(-243.283 -160.793)"/>
        <rect id="Rectangle_28" data-name="Rectangle 28" class="cls-11" width="30.544" height="4.699" transform="translate(38.088 94.663)"/>
        <rect id="Rectangle_29" data-name="Rectangle 29" class="cls-11" width="54.658" height="3.092" transform="translate(104.988 73.269)"/>
        <rect id="Rectangle_30" data-name="Rectangle 30" class="cls-11" width="51.567" height="3.957" transform="translate(282.937 126.32)"/>
        <rect id="Rectangle_31" data-name="Rectangle 31" class="cls-11" width="37.593" height="3.957" transform="translate(311.132 78.339)"/>
        <rect id="Rectangle_32" data-name="Rectangle 32" class="cls-11" width="58.368" height="3.957" transform="translate(217.644 64.489)"/>
        <rect id="Rectangle_33" data-name="Rectangle 33" class="cls-11" width="46.744" height="3.957" transform="translate(38.706 156.617)"/>
        <path id="Path_46" data-name="Path 46" class="cls-10" d="M524.627,314.3c-7.667,16.2-25.351,24.609-41.427,20.651v28.071H525.74Z" transform="translate(-195.44 -150.263)"/>
        <path id="Path_47" data-name="Path 47" class="cls-16" d="M502.7,277.3" transform="translate(-190.826 -159.018)"/>
        <path id="Path_48" data-name="Path 48" class="cls-10" d="M539.575,256.7c0,6.554-9.151,27.329-36.975,23v9.893h22.754v8.78h-5.317v78.649h19.539Z" transform="translate(-190.85 -163.892)"/>
      </g>
      <g id="lines_1_" transform="translate(0 0.185)">
        <rect id="Rectangle_34" data-name="Rectangle 34" class="cls-17" width="152.722" height="172.508" transform="translate(27.824 51.567)"/>
        <rect id="Rectangle_35" data-name="Rectangle 35" class="cls-17" width="387.06" height="8.904"/>
        <rect id="Rectangle_36" data-name="Rectangle 36" class="cls-17" width="131.699" height="161.502" transform="translate(38.335 51.567)"/>
        <rect id="Rectangle_37" data-name="Rectangle 37" class="cls-17" width="131.699" height="161.502" transform="translate(217.026 51.567)"/>
        <rect id="Rectangle_38" data-name="Rectangle 38" class="cls-17" width="152.722" height="172.508" transform="translate(359.297 224.074) rotate(180)"/>
        <line id="Line_1" data-name="Line 1" class="cls-17" y2="65.911" transform="translate(370.613 51.567)"/>
        <line id="Line_2" data-name="Line 2" class="cls-18" y2="8.656" transform="translate(370.613 117.478)"/>
        <line id="Line_3" data-name="Line 3" class="cls-17" y2="3.339" transform="translate(295.056 142.581)"/>
        <line id="Line_4" data-name="Line 4" class="cls-17" y2="3.339" transform="translate(304.207 142.581)"/>
        <line id="Line_5" data-name="Line 5" class="cls-17" y2="3.339" transform="translate(313.358 142.581)"/>
        <line id="Line_6" data-name="Line 6" class="cls-17" y2="3.339" transform="translate(322.385 142.581)"/>
        <path id="Path_49" data-name="Path 49" class="cls-17" d="M632.109,203.221H254.2L257.91,189H628.4Z" transform="translate(-249.625 -180.096)"/>
        <path id="Path_50" data-name="Path 50" class="cls-17" d="M632.109,214.721H254.2l3.71-14.221H628.4Z" transform="translate(-249.625 -177.375)"/>
        <path id="Path_51" data-name="Path 51" class="cls-17" d="M632.109,226.221H254.2L257.91,212H628.4Z" transform="translate(-249.625 -174.654)"/>
        <path id="Path_52" data-name="Path 52" class="cls-17" d="M502.7,292.733V245h36.851V379.914H502.7v-.495" transform="translate(-190.826 -166.846)"/>
        <rect id="Rectangle_39" data-name="Rectangle 39" class="cls-17" width="58.863" height="149.136" transform="translate(217.026 63.933)"/>
        <rect id="Rectangle_40" data-name="Rectangle 40" class="cls-17" width="41.056" height="77.783" transform="translate(288.254 134.791)"/>
        <rect id="Rectangle_41" data-name="Rectangle 41" class="cls-17" width="51.69" height="8.656" transform="translate(282.937 126.135)"/>
        <path id="Path_53" data-name="Path 53" class="cls-17" d="M392.8,248.072H333.2a7.178,7.178,0,0,1,7.172-7.172h45.26a7.177,7.177,0,0,1,7.172,7.172Z" transform="translate(-230.932 -167.816)"/>
        <path id="Path_54" data-name="Path 54" class="cls-17" d="M281.847,308.8h42.91a7.177,7.177,0,0,1,7.172,7.172H281.6" transform="translate(-243.141 -151.75)"/>
        <line id="Line_7" data-name="Line 7" class="cls-17" y2="9.151" transform="translate(318.428 69.003)"/>
        <line id="Line_8" data-name="Line 8" class="cls-17" y2="5.688" transform="translate(325.6 72.466)"/>
        <rect id="Rectangle_42" data-name="Rectangle 42" class="cls-19" width="8.162" height="8.162" transform="translate(319.664 84.584)"/>
        <rect id="Rectangle_43" data-name="Rectangle 43" class="cls-19" width="8.162" height="8.162" transform="translate(334.875 84.584)"/>
        <rect id="Rectangle_44" data-name="Rectangle 44" class="cls-19" width="8.162" height="8.162" transform="translate(319.664 99.3)"/>
        <rect id="Rectangle_45" data-name="Rectangle 45" class="cls-19" width="8.162" height="8.162" transform="translate(334.875 99.3)"/>
        <rect id="Rectangle_46" data-name="Rectangle 46" class="cls-19" width="8.162" height="8.162" transform="translate(319.664 114.016)"/>
        <rect id="Rectangle_47" data-name="Rectangle 47" class="cls-19" width="8.162" height="8.162" transform="translate(334.875 114.016)"/>
        <rect id="Rectangle_48" data-name="Rectangle 48" class="cls-19" width="8.162" height="11.624" transform="translate(51.938 171.518)"/>
        <rect id="Rectangle_49" data-name="Rectangle 49" class="cls-19" width="8.162" height="11.624" transform="translate(67.024 171.518)"/>
        <rect id="Rectangle_50" data-name="Rectangle 50" class="cls-19" width="8.162" height="11.624" transform="translate(51.938 192.664)"/>
        <rect id="Rectangle_51" data-name="Rectangle 51" class="cls-19" width="8.162" height="11.624" transform="translate(67.024 192.664)"/>
        <rect id="Rectangle_52" data-name="Rectangle 52" class="cls-19" width="6.554" height="11.624" transform="translate(38.335 171.518)"/>
        <rect id="Rectangle_53" data-name="Rectangle 53" class="cls-19" width="6.554" height="11.624" transform="translate(38.335 192.664)"/>
        <rect id="Rectangle_54" data-name="Rectangle 54" class="cls-19" width="8.162" height="8.162" transform="translate(334.875 128.731)"/>
        <rect id="Rectangle_55" data-name="Rectangle 55" class="cls-19" width="8.162" height="8.162" transform="translate(334.875 143.447)"/>
        <rect id="Rectangle_56" data-name="Rectangle 56" class="cls-19" width="8.162" height="8.162" transform="translate(334.875 158.039)"/>
        <rect id="Rectangle_57" data-name="Rectangle 57" class="cls-19" width="8.162" height="8.162" transform="translate(334.875 172.755)"/>
        <rect id="Rectangle_58" data-name="Rectangle 58" class="cls-19" width="8.162" height="8.162" transform="translate(334.875 187.471)"/>
        <line id="Line_9" data-name="Line 9" class="cls-17" y2="3.339" transform="translate(295.056 154.577)"/>
        <line id="Line_10" data-name="Line 10" class="cls-17" y2="3.339" transform="translate(304.207 154.577)"/>
        <line id="Line_11" data-name="Line 11" class="cls-17" y2="3.339" transform="translate(313.358 154.577)"/>
        <line id="Line_12" data-name="Line 12" class="cls-17" y2="3.339" transform="translate(322.385 154.577)"/>
        <line id="Line_13" data-name="Line 13" class="cls-17" y2="3.339" transform="translate(295.056 166.572)"/>
        <line id="Line_14" data-name="Line 14" class="cls-17" y2="3.339" transform="translate(304.207 166.572)"/>
        <line id="Line_15" data-name="Line 15" class="cls-17" y2="3.339" transform="translate(313.358 166.572)"/>
        <line id="Line_16" data-name="Line 16" class="cls-17" y2="3.339" transform="translate(322.385 166.572)"/>
        <line id="Line_17" data-name="Line 17" class="cls-17" y2="3.339" transform="translate(295.056 178.691)"/>
        <line id="Line_18" data-name="Line 18" class="cls-17" y2="3.339" transform="translate(304.207 178.691)"/>
        <line id="Line_19" data-name="Line 19" class="cls-17" y2="3.339" transform="translate(313.358 178.691)"/>
        <line id="Line_20" data-name="Line 20" class="cls-17" y2="3.339" transform="translate(322.385 178.691)"/>
        <line id="Line_21" data-name="Line 21" class="cls-17" y2="3.339" transform="translate(295.056 190.686)"/>
        <line id="Line_22" data-name="Line 22" class="cls-17" y2="3.339" transform="translate(304.207 190.686)"/>
        <line id="Line_23" data-name="Line 23" class="cls-17" y2="3.339" transform="translate(313.358 190.686)"/>
        <line id="Line_24" data-name="Line 24" class="cls-17" y2="3.339" transform="translate(322.385 190.686)"/>
        <line id="Line_25" data-name="Line 25" class="cls-17" y2="3.339" transform="translate(295.056 202.681)"/>
        <line id="Line_26" data-name="Line 26" class="cls-17" y2="3.339" transform="translate(304.207 202.681)"/>
        <line id="Line_27" data-name="Line 27" class="cls-17" y2="3.339" transform="translate(313.358 202.681)"/>
        <line id="Line_28" data-name="Line 28" class="cls-17" y2="3.339" transform="translate(322.385 202.681)"/>
        <line id="Line_29" data-name="Line 29" class="cls-20" y2="0.618" transform="translate(227.66 74.815)"/>
        <line id="Line_30" data-name="Line 30" class="cls-20" y2="0.618" transform="translate(240.521 74.815)"/>
        <line id="Line_31" data-name="Line 31" class="cls-20" y2="0.618" transform="translate(253.382 74.815)"/>
        <line id="Line_32" data-name="Line 32" class="cls-20" y2="0.618" transform="translate(266.243 74.815)"/>
        <line id="Line_33" data-name="Line 33" class="cls-20" y2="0.618" transform="translate(227.66 89.036)"/>
        <line id="Line_34" data-name="Line 34" class="cls-20" y2="0.618" transform="translate(240.521 89.036)"/>
        <line id="Line_35" data-name="Line 35" class="cls-20" y2="0.618" transform="translate(253.382 89.036)"/>
        <line id="Line_36" data-name="Line 36" class="cls-20" y2="0.618" transform="translate(266.243 89.036)"/>
        <line id="Line_37" data-name="Line 37" class="cls-20" y2="0.618" transform="translate(227.66 103.257)"/>
        <line id="Line_38" data-name="Line 38" class="cls-20" y2="0.618" transform="translate(240.521 103.257)"/>
        <line id="Line_39" data-name="Line 39" class="cls-20" y2="0.618" transform="translate(253.382 103.257)"/>
        <line id="Line_40" data-name="Line 40" class="cls-20" y2="0.618" transform="translate(266.243 103.257)"/>
        <line id="Line_41" data-name="Line 41" class="cls-20" y2="0.618" transform="translate(227.66 117.478)"/>
        <line id="Line_42" data-name="Line 42" class="cls-20" y2="0.618" transform="translate(240.521 117.478)"/>
        <line id="Line_43" data-name="Line 43" class="cls-20" y2="0.618" transform="translate(253.382 117.478)"/>
        <line id="Line_44" data-name="Line 44" class="cls-20" y2="0.618" transform="translate(266.243 117.478)"/>
        <line id="Line_45" data-name="Line 45" class="cls-20" y2="0.618" transform="translate(227.66 131.699)"/>
        <line id="Line_46" data-name="Line 46" class="cls-20" y2="0.618" transform="translate(240.521 131.699)"/>
        <line id="Line_47" data-name="Line 47" class="cls-20" y2="0.618" transform="translate(253.382 131.699)"/>
        <line id="Line_48" data-name="Line 48" class="cls-20" y2="0.618" transform="translate(266.243 131.699)"/>
        <line id="Line_49" data-name="Line 49" class="cls-20" y2="0.618" transform="translate(227.66 145.92)"/>
        <line id="Line_50" data-name="Line 50" class="cls-20" y2="0.618" transform="translate(240.521 145.92)"/>
        <line id="Line_51" data-name="Line 51" class="cls-20" y2="0.371" transform="translate(46.991 103.752)"/>
        <line id="Line_52" data-name="Line 52" class="cls-20" y2="0.371" transform="translate(60.347 103.752)"/>
        <line id="Line_53" data-name="Line 53" class="cls-20" y2="0.371" transform="translate(46.991 112.779)"/>
        <line id="Line_54" data-name="Line 54" class="cls-20" y2="0.371" transform="translate(60.347 112.779)"/>
        <line id="Line_55" data-name="Line 55" class="cls-20" y2="0.371" transform="translate(46.991 121.806)"/>
        <line id="Line_56" data-name="Line 56" class="cls-20" y2="0.371" transform="translate(60.347 121.806)"/>
        <line id="Line_57" data-name="Line 57" class="cls-20" y2="0.371" transform="translate(46.991 130.834)"/>
        <line id="Line_58" data-name="Line 58" class="cls-20" y2="0.371" transform="translate(60.347 130.834)"/>
        <line id="Line_59" data-name="Line 59" class="cls-20" y2="0.371" transform="translate(46.991 139.861)"/>
        <line id="Line_60" data-name="Line 60" class="cls-20" y2="0.371" transform="translate(60.347 139.861)"/>
        <line id="Line_61" data-name="Line 61" class="cls-20" y2="0.371" transform="translate(46.991 148.888)"/>
        <line id="Line_62" data-name="Line 62" class="cls-20" y2="0.371" transform="translate(60.347 148.888)"/>
        <line id="Line_63" data-name="Line 63" class="cls-20" y2="0.618" transform="translate(253.382 145.92)"/>
        <line id="Line_64" data-name="Line 64" class="cls-20" y2="0.618" transform="translate(266.243 145.92)"/>
        <line id="Line_65" data-name="Line 65" class="cls-20" y2="0.618" transform="translate(227.66 174.733)"/>
        <line id="Line_66" data-name="Line 66" class="cls-20" y2="0.618" transform="translate(240.521 174.733)"/>
        <line id="Line_67" data-name="Line 67" class="cls-20" y2="0.618" transform="translate(253.382 174.733)"/>
        <line id="Line_68" data-name="Line 68" class="cls-20" y2="0.618" transform="translate(266.243 174.733)"/>
        <line id="Line_69" data-name="Line 69" class="cls-20" y2="0.618" transform="translate(227.66 188.954)"/>
        <line id="Line_70" data-name="Line 70" class="cls-20" y2="0.618" transform="translate(240.521 188.954)"/>
        <line id="Line_71" data-name="Line 71" class="cls-20" y2="0.618" transform="translate(253.382 188.954)"/>
        <line id="Line_72" data-name="Line 72" class="cls-20" y2="0.618" transform="translate(266.243 188.954)"/>
        <line id="Line_73" data-name="Line 73" class="cls-20" y2="0.618" transform="translate(227.66 160.141)"/>
        <line id="Line_74" data-name="Line 74" class="cls-20" y2="0.618" transform="translate(240.521 160.141)"/>
        <line id="Line_75" data-name="Line 75" class="cls-20" y2="0.618" transform="translate(253.382 160.141)"/>
        <line id="Line_76" data-name="Line 76" class="cls-20" y2="0.618" transform="translate(266.243 160.141)"/>
        <line id="Line_77" data-name="Line 77" class="cls-20" y2="0.618" transform="translate(227.66 174.362)"/>
        <line id="Line_78" data-name="Line 78" class="cls-20" y2="0.618" transform="translate(240.521 174.362)"/>
        <line id="Line_79" data-name="Line 79" class="cls-20" y2="0.618" transform="translate(253.382 174.362)"/>
        <line id="Line_80" data-name="Line 80" class="cls-20" y2="0.618" transform="translate(266.243 174.362)"/>
        <line id="Line_81" data-name="Line 81" class="cls-20" y2="0.618" transform="translate(227.66 203.176)"/>
        <line id="Line_82" data-name="Line 82" class="cls-20" y2="0.618" transform="translate(240.521 203.176)"/>
        <line id="Line_83" data-name="Line 83" class="cls-20" y2="0.618" transform="translate(253.382 203.176)"/>
        <line id="Line_84" data-name="Line 84" class="cls-20" y2="0.618" transform="translate(266.243 203.176)"/>
        <line id="Line_85" data-name="Line 85" class="cls-19" x1="1.855" y2="7.172" transform="translate(12.366 8.904)"/>
        <line id="Line_86" data-name="Line 86" class="cls-19" x1="1.36" y2="4.946" transform="translate(90.149 37.346)"/>
        <line id="Line_87" data-name="Line 87" class="cls-19" x1="0.618" y2="2.35" transform="translate(95.096 37.346)"/>
        <line id="Line_88" data-name="Line 88" class="cls-19" x1="1.237" y2="5.194" transform="translate(16.694 8.904)"/>
        <path id="Path_55" data-name="Path 55" class="cls-17" d="M337.4,379.512V246.7h49.217V379.018" transform="translate(-229.938 -166.444)"/>
        <path id="Path_56" data-name="Path 56" class="cls-17" d="M360.4,354.1" transform="translate(-224.496 -141.032)"/>
        <line id="Line_89" data-name="Line 89" class="cls-17" y2="48.97" transform="translate(81.987 164.222)"/>
        <path id="Path_57" data-name="Path 57" class="cls-17" d="M311.8,320.773V258.2H281.5v62.573" transform="translate(-243.165 -163.723)"/>
        <line id="Line_90" data-name="Line 90" class="cls-19" x2="37.098" transform="translate(113.521 88.418)"/>
        <line id="Line_91" data-name="Line 91" class="cls-19" x2="37.098" transform="translate(113.521 97.321)"/>
        <line id="Line_92" data-name="Line 92" class="cls-19" x2="37.098" transform="translate(113.521 106.349)"/>
        <line id="Line_93" data-name="Line 93" class="cls-19" x2="37.098" transform="translate(113.521 115.252)"/>
        <line id="Line_94" data-name="Line 94" class="cls-19" x2="37.098" transform="translate(113.521 124.156)"/>
        <line id="Line_95" data-name="Line 95" class="cls-19" x2="37.098" transform="translate(113.521 133.183)"/>
        <line id="Line_96" data-name="Line 96" class="cls-19" x2="37.098" transform="translate(113.521 142.087)"/>
        <line id="Line_97" data-name="Line 97" class="cls-19" x2="37.098" transform="translate(113.521 151.114)"/>
        <line id="Line_98" data-name="Line 98" class="cls-19" x2="37.098" transform="translate(113.521 160.018)"/>
        <line id="Line_99" data-name="Line 99" class="cls-19" x2="37.098" transform="translate(113.521 168.921)"/>
        <line id="Line_100" data-name="Line 100" class="cls-19" x2="37.098" transform="translate(113.521 177.949)"/>
        <line id="Line_101" data-name="Line 101" class="cls-19" x2="37.098" transform="translate(113.521 186.852)"/>
        <line id="Line_102" data-name="Line 102" class="cls-19" x2="37.098" transform="translate(113.521 195.756)"/>
        <line id="Line_103" data-name="Line 103" class="cls-19" x2="37.098" transform="translate(113.521 204.783)"/>
        <line id="Line_104" data-name="Line 104" class="cls-17" y2="5.441" transform="translate(60.347 89.036)"/>
        <line id="Line_105" data-name="Line 105" class="cls-19" x1="16.447" y2="16.447" transform="translate(65.54 63.933)"/>
        <line id="Line_106" data-name="Line 106" class="cls-19" x1="11.871" y2="11.871" transform="translate(83.719 58.986)"/>
        <line id="Line_107" data-name="Line 107" class="cls-19" x1="1.731" y2="1.731" transform="translate(78.896 73.949)"/>
        <line id="Line_108" data-name="Line 108" class="cls-19" y2="0.866" transform="translate(354.537 63.933)"/>
        <line id="Line_109" data-name="Line 109" class="cls-19" y2="8.656" transform="translate(354.537 51.567)"/>
        <line id="Line_110" data-name="Line 110" class="cls-19" x2="0.866" y2="4.823" transform="translate(370.86 23.125)"/>
        <line id="Line_111" data-name="Line 111" class="cls-21" x2="0.124" transform="translate(295.427 303.588)"/>
        <circle id="Ellipse_1" data-name="Ellipse 1" class="cls-19" cx="5.688" cy="5.688" r="5.688" transform="translate(291.964 297.9)"/>
        <line id="Line_112" data-name="Line 112" class="cls-21" transform="translate(299.631 303.588)"/>
        <path id="Path_58" data-name="Path 58" class="cls-22" d="M479.842,439.38h22.012a5.12,5.12,0,0,0,5.07-5.194v-9.769a5.23,5.23,0,0,0-5.07-5.317H472.67a5.151,5.151,0,0,0-5.07,5.317v9.769a5.044,5.044,0,0,0,5.07,5.194h2.35" transform="translate(-199.131 -125.652)"/>
        <path id="Path_59" data-name="Path 59" class="cls-19" d="M482.477,428.388a5.689,5.689,0,1,0-7.914,5.194v5.441a1.429,1.429,0,0,0,1.484,1.484h1.237a1.429,1.429,0,0,0,1.484-1.484v-5.441A5.46,5.46,0,0,0,482.477,428.388Z" transform="translate(-198.303 -124.8)"/>
        <path id="Path_60" data-name="Path 60" class="cls-19" d="M473.3,427.8a7.8,7.8,0,0,1,.866,1.237v3.339" transform="translate(-197.783 -123.593)"/>
        <path id="Path_61" data-name="Path 61" class="cls-19" d="M478.366,427.8a7.8,7.8,0,0,0-.866,1.237v3.339" transform="translate(-196.789 -123.593)"/>
        <path id="Path_62" data-name="Path 62" class="cls-22" d="M486.064,446.665a27.082,27.082,0,1,1-54.164,0V397.2" transform="translate(-207.578 -130.834)"/>
        <line id="Line_113" data-name="Line 113" class="cls-19" x2="4.328" transform="translate(276.383 310.39)"/>
        <line id="Line_114" data-name="Line 114" class="cls-19" y2="20.28" transform="translate(288.131 293.448)"/>
      </g>
    </g>
    <g id="main" transform="translate(735 317.733)">
      <g id="colors" transform="translate(25.351 0)">
        <g id="XMLID_3_">
          <g id="Group_2" data-name="Group 2">
            <path id="Path_63" data-name="Path 63" class="cls-23" d="M675.468,363a7.442,7.442,0,0,1,7.42,7.42,6.98,6.98,0,0,1-2.226,5.194,7.4,7.4,0,0,1-5.194,2.226H227.32a7.441,7.441,0,0,1-7.42-7.42,6.98,6.98,0,0,1,2.226-5.194A7.4,7.4,0,0,1,227.32,363H675.468Z" transform="translate(-219.9 -238.473)"/>
            <path id="Path_64" data-name="Path 64" class="cls-23" d="M578.034,375V491.489a7.667,7.667,0,0,1-15.334,0V375Z" transform="translate(-138.789 -235.634)"/>
            <path id="Path_65" data-name="Path 65" class="cls-24" d="M578.214,340.3l-.742,8.656H554.718L554.1,340.3Z" transform="translate(-140.824 -243.844)"/>
            <path id="Path_66" data-name="Path 66" class="cls-25" d="M577.354,347.3l-.495,5.688H555.095L554.6,347.3Z" transform="translate(-140.706 -242.188)"/>
            <path id="Path_67" data-name="Path 67" class="cls-24" d="M576.741,351.9l-.618,8.409c-.247,2.968-2.226,5.317-4.7,5.317H560.417c-2.473,0-4.452-2.226-4.7-5.317L555.1,351.9Z" transform="translate(-140.587 -241.099)"/>
            <rect id="Rectangle_59" data-name="Rectangle 59" class="cls-23" width="281.948" height="27.329" transform="translate(142.087 139.366)"/>
            <path id="Path_68" data-name="Path 68" class="cls-26" d="M526.624,364.893H498.8c.247-5.565,6.43-9.893,13.85-9.893S526.376,359.328,526.624,364.893Z" transform="translate(-153.909 -240.366)"/>
            <path id="Path_69" data-name="Path 69" class="cls-26" d="M521.743,328v10.759a9.922,9.922,0,0,1-9.893,9.893h-5.688l-.742-9.893L481.8,340.49l.618,8.038-1.113.124H406.491l.618-4.2-21.888-2.968-.989,7.172h-3.339A9.922,9.922,0,0,1,371,338.759V328Z" transform="translate(-184.148 -246.755)"/>
            <path id="Path_70" data-name="Path 70" class="cls-26" d="M521.767,272.317v71.229H370.9V272.193a9.922,9.922,0,0,1,9.893-9.893H511.874A10.111,10.111,0,0,1,521.767,272.317Zm-7.3,64.428V273.8a4.7,4.7,0,0,0-4.7-4.7H382.648a4.7,4.7,0,0,0-4.7,4.7v62.944Z" transform="translate(-184.171 -262.3)"/>
            <path id="Path_71" data-name="Path 71" class="cls-27" d="M513.1,272.5v62.944H376.7V272.5a4.7,4.7,0,0,1,4.7-4.7H508.523A4.843,4.843,0,0,1,513.1,272.5Z" transform="translate(-182.799 -260.999)"/>
            <path id="Path_72" data-name="Path 72" class="cls-28" d="M488.848,349.6a4.707,4.707,0,0,1-4.328,5.07l-18.92,1.36a4.707,4.707,0,0,0,4.328-5.07l9.522-.742,4.7-.371Z" transform="translate(-161.764 -241.644)"/>
            <path id="Path_73" data-name="Path 73" class="cls-28" d="M484.985,348.3l.371,4.7-4.7.371-9.522.742a4.714,4.714,0,1,1-9.4.742l-.618-8.285-.618-8.038,23.619-1.731.742,9.893Z" transform="translate(-162.971 -244.672)"/>
            <path id="Path_74" data-name="Path 74" class="cls-26" d="M473.469,367.33H403.6c0-4.328,2.968-7.791,6.678-7.791a14.965,14.965,0,0,0,12.49-6.183c1.731-2.35,1.731-5.194,2.473-8.656h26.587c1.979,9.027,6.554,14.839,14.963,14.839a6.312,6.312,0,0,1,4.7,2.226A8.479,8.479,0,0,1,473.469,367.33Z" transform="translate(-176.434 -242.803)"/>
            <path id="Path_75" data-name="Path 75" class="cls-29" d="M404.69,341.892l-.618,4.2-1.484,10.882a4.372,4.372,0,1,1-8.656-1.237l-8.9-1.237-4.328-.618.618-4.328.495-3.586.989-7.172Z" transform="translate(-181.853 -244.199)"/>
            <path id="Path_76" data-name="Path 76" class="cls-29" d="M398.579,358l-17.56-2.35a4.351,4.351,0,0,1-3.71-4.946l4.328.618,4.328.618,8.9,1.237A4.277,4.277,0,0,0,398.579,358Z" transform="translate(-182.667 -241.383)"/>
            <path id="Path_77" data-name="Path 77" class="cls-30" d="M356.379,335.2v23a10.186,10.186,0,0,1-10.14,10.14h-9.4A10.186,10.186,0,0,1,326.7,358.2v-23Z" transform="translate(-194.63 -245.051)"/>
            <path id="Path_78" data-name="Path 78" class="cls-23" d="M357.368,425.2v62.078H238.9V425.2Zm-15.21,49.836V437.319H254.234v37.717Z" transform="translate(-215.404 -223.756)"/>
            <path id="Path_79" data-name="Path 79" class="cls-23" d="M357.368,375v62.078H238.9V375Zm-15.21,49.836V387.242H254.234v37.593Z" transform="translate(-215.404 -235.634)"/>
            <rect id="Rectangle_60" data-name="Rectangle 60" class="cls-23" width="87.923" height="37.717" transform="translate(38.706 213.687)"/>
            <rect id="Rectangle_61" data-name="Rectangle 61" class="cls-23" width="87.923" height="37.717" transform="translate(38.706 151.609)"/>
            <path id="Path_80" data-name="Path 80" class="cls-31" d="M299.517,277.636l10.635,10.635-7.667,7.667L289.624,308.8l-7.667,7.667-10.635-10.635a19.731,19.731,0,0,1-4.575-21.022h0l11.871-11.871h0a19.039,19.039,0,0,1,6.925-1.237A20.118,20.118,0,0,1,299.517,277.636Z" transform="translate(-209.121 -260.076)"/>
            <path id="Path_81" data-name="Path 81" class="cls-32" d="M297.861,291.3a8.875,8.875,0,0,1,2.6,6.307,9.13,9.13,0,0,1-9.151,9.151,8.875,8.875,0,0,1-6.307-2.6Z" transform="translate(-204.496 -255.438)"/>
            <path id="Path_82" data-name="Path 82" class="cls-31" d="M301.54,362.48V365.2H247.5V362.48a8.814,8.814,0,0,1,8.78-8.78h36.48A8.735,8.735,0,0,1,301.54,362.48Z" transform="translate(-213.369 -240.674)"/>
            <path id="Path_83" data-name="Path 83" class="cls-31" d="M282.241,355.782H260.6a10.821,10.821,0,1,1,21.641,0Z" transform="translate(-210.27 -242.756)"/>
            <path id="Path_84" data-name="Path 84" class="cls-31" d="M278.733,273.279l-11.871,11.871a8.511,8.511,0,0,1,0-11.871,8.287,8.287,0,0,1,11.871,0Z" transform="translate(-209.359 -260.295)"/>
            <path id="Path_85" data-name="Path 85" class="cls-33" d="M240.533,306.9A8.595,8.595,0,1,1,232,315.556,8.5,8.5,0,0,1,240.533,306.9Z" transform="translate(-217.038 -251.747)"/>
          </g>
        </g>
      </g>
      <g id="shadows" transform="translate(26.912 0.124)">
        <rect id="Rectangle_62" data-name="Rectangle 62" class="cls-34" width="281.453" height="24.732" transform="translate(140.402 141.345)"/>
        <path id="Path_86" data-name="Path 86" class="cls-35" d="M356.284,335.2H327.1v4.328h5.688v8.533a4.328,4.328,0,1,0,8.656,0v-8.533h14.839Z" transform="translate(-196.096 -245.175)"/>
        <path id="Path_87" data-name="Path 87" class="cls-36" d="M411.4,267.9l-34.5,34.378V325.65l57.874-57.75Z" transform="translate(-184.313 -261.099)"/>
        <path id="Path_88" data-name="Path 88" class="cls-36" d="M448.961,267.995,380.7,336.256h47.362L496.694,267.5Z" transform="translate(-183.414 -261.193)"/>
        <path id="Path_89" data-name="Path 89" class="cls-11" d="M387.568,328.047,373.1,342.639v3.71l2.473,2.473h8.038l.989-7.3,5.07.742L404.015,327.8Z" transform="translate(-185.212 -246.926)"/>
        <path id="Path_90" data-name="Path 90" class="cls-11" d="M403.626,329.071,389.9,342.8h3.71l14.221-14.1Z" transform="translate(-181.237 -246.713)"/>
        <path id="Path_91" data-name="Path 91" class="cls-37" d="M465.8,340l17.065-1.237.742,9.893H489.3l7.667-3.586,2.226-6.307V328H484.1a13.582,13.582,0,0,1-4.081,6.183c-3.71,3.462-9.275,5.441-14.221,5.812" transform="translate(-163.278 -246.878)"/>
        <rect id="Rectangle_63" data-name="Rectangle 63" class="cls-38" width="74.444" height="3.71" transform="translate(221.524 97.445)"/>
        <path id="Path_92" data-name="Path 92" class="cls-37" d="M461.8,356.238c2.6,0,17.436-1.855,18.178-19.291l3.833-.247,1.237,15.952h4.7l-.495,2.473-2.721,2.6L466.5,359.206Z" transform="translate(-164.225 -244.82)"/>
        <path id="Path_93" data-name="Path 93" class="cls-13" d="M461.589,352.51l.495-1.855a16.553,16.553,0,0,1,10.759-11.377l5.936-1.979-18.178.989Z" transform="translate(-164.509 -244.678)"/>
        <path id="Path_94" data-name="Path 94" class="cls-37" d="M381.181,353.466c10.882,2.35,20.651,1.979,23.99-12.366l-2.721,17.56-3.339,1.484-20.033-3.091-1.979-3.833Z" transform="translate(-184.266 -243.779)"/>
        <path id="Path_95" data-name="Path 95" class="cls-8" d="M381.1,350.524l1.608-11.624,12.613,1.731-3.463.371a11.824,11.824,0,0,0-9.4,6.8Z" transform="translate(-183.319 -244.299)"/>
        <rect id="Rectangle_64" data-name="Rectangle 64" class="cls-39" width="26.835" height="7.914" transform="translate(247.245 100.784)"/>
        <rect id="Rectangle_65" data-name="Rectangle 65" class="cls-39" width="118.591" height="7.049" transform="translate(21.934 138.995)"/>
        <path id="Path_96" data-name="Path 96" class="cls-37" d="M265.9,294.539c17.313,14.963,38.953-1.608,37.593-14.839l6.554,6.554-17.56,17.56-10.759,10.759c-5.07-5.441-10.14-10.759-15.21-16.076Z" transform="translate(-210.577 -258.307)"/>
        <path id="Path_97" data-name="Path 97" class="cls-40" d="M285,354.318V353.7l.989.618Z" transform="translate(-206.058 -240.797)"/>
        <path id="Path_98" data-name="Path 98" class="cls-37" d="M300.151,357.415l-1.237-.742-3.957-2.473h-.989c0,1.36-.989,2.6-2.721,3.463-7.791,4.328-30.421,3.71-43.529,3.092l-.618,4.328h55.4Z" transform="translate(-215.025 -240.679)"/>
        <path id="Path_99" data-name="Path 99" class="cls-11" d="M249.7,354.2h43.652c0,1.36-.989,2.6-2.721,3.462H249.7Z" transform="translate(-214.41 -240.679)"/>
        <path id="Path_100" data-name="Path 100" class="cls-13" d="M289.757,354.2v2.473L285.8,354.2Z" transform="translate(-205.869 -240.679)"/>
        <path id="Path_101" data-name="Path 101" class="cls-41" d="M491.5,377.839c34.007.371,64.8-1.36,65.788-14.839H615.78l2.721,7.42-3.71,6.43-54.164.989Z" transform="translate(-157.197 -238.597)"/>
        <path id="Path_102" data-name="Path 102" class="cls-40" d="M617.984,373.445H462.419a133.083,133.083,0,0,0-15.705,0H334.8v8.78H492.221a49.37,49.37,0,0,1,30.792,10.511,31.619,31.619,0,0,1,7.42,8.038h86.316l.866-18.549h.371Z" transform="translate(-194.275 -236.181)"/>
        <path id="Path_103" data-name="Path 103" class="cls-13" d="M282.305,475.4h0Z" transform="translate(-216.966 -212.001)"/>
        <path id="Path_104" data-name="Path 104" class="cls-41" d="M342.157,410.5a41.633,41.633,0,0,0,15.21-4.7v23.867H238.9v-6.8c24.114.124,103.257-5.317,103.257-5.317Z" transform="translate(-216.966 -228.47)"/>
        <path id="Path_105" data-name="Path 105" class="cls-35" d="M249.93,480.623a8.547,8.547,0,0,1-5.565-2.968,8.406,8.406,0,0,1-1.979-4.7L238.8,436.6v47.981h43.281Z" transform="translate(-216.989 -221.182)"/>
        <path id="Path_106" data-name="Path 106" class="cls-41" d="M356.326,456.1v23.867H281.14l-32.276-3.957a8.547,8.547,0,0,1-5.565-2.968c28.813-.495,97.692-5.317,97.692-5.317v-7.049A44.443,44.443,0,0,0,356.326,456.1Z" transform="translate(-215.925 -216.568)"/>
        <path id="Path_107" data-name="Path 107" class="cls-37" d="M578.372,340.3h-5.936c.124,1.484.247,2.968.247,4.328a27.628,27.628,0,0,1-4.575,14.716,8.165,8.165,0,0,1-6.678,3.586H557.6v4.823c-.495.124-1.113.371-1.608.495l-.989.124h21.146v-5.565h0L578,344.628Z" transform="translate(-142.172 -243.968)"/>
        <path id="Path_108" data-name="Path 108" class="cls-13" d="M572.773,340.3c.124,1.484.247,2.968.247,4.328H554.1V340.3Z" transform="translate(-142.385 -243.968)"/>
        <path id="Path_109" data-name="Path 109" class="cls-16" d="M573.971,340.3v4.328H573.6Z" transform="translate(-137.771 -243.968)"/>
        <rect id="Rectangle_66" data-name="Rectangle 66" class="cls-11" width="68.137" height="6.554" transform="translate(225.604 117.849)"/>
        <path id="Path_110" data-name="Path 110" class="cls-35" d="M291.587,272.913,280.952,271.8l-4.946,4.2h0a4.207,4.207,0,0,0,.124,1.237l-2.226-.495-8.9,9.646.495,6.8,8.656-8.9a3.813,3.813,0,0,1,5.565,0l.495.495a10.8,10.8,0,0,0,6.8,2.35,10.968,10.968,0,0,0,9.769-5.936,13.109,13.109,0,0,0,1.237-3.71Z" transform="translate(-210.79 -260.176)"/>
        <path id="Path_111" data-name="Path 111" class="cls-36" d="M512.255,392.1H353.226a16.972,16.972,0,0,0-13.726,6.183H525.981A16.972,16.972,0,0,0,512.255,392.1Z" transform="translate(-193.162 -231.711)"/>
        <circle id="Ellipse_2" data-name="Ellipse 2" class="cls-39" cx="2.226" cy="2.226" r="2.226" transform="translate(19.708 61.46)"/>
        <path id="Path_112" data-name="Path 112" class="cls-13" d="M234.273,318.419a7.667,7.667,0,0,1,15.334,0l-2.226-9.027-7.3-3.091-5.936,3.586L231.8,315.2Z" transform="translate(-218.646 -252.013)"/>
        <path id="Path_113" data-name="Path 113" class="cls-40" d="M246.563,310.3a7.693,7.693,0,0,1-14.963,3.586l4.2,8.285,7.791,1.36,4.946-4.823.989-5.812Z" transform="translate(-218.693 -251.066)"/>
        <path id="Path_114" data-name="Path 114" class="cls-40" d="M292.667,302.206l7.3-7.3-2.1-3.71-8.9,9.027-.247-.247-1.855,2.226h0l-1.113,1.36-.742.989,3.462,1.484,7.543-.618,4.081-3.834v-1.731C298.726,301.835,295.511,302.824,292.667,302.206Z" transform="translate(-206.058 -255.586)"/>
        <ellipse id="Ellipse_3" data-name="Ellipse 3" class="cls-35" cx="3.957" cy="2.473" rx="3.957" ry="2.473" transform="translate(69.791 15.581)"/>
        <path id="Path_115" data-name="Path 115" class="cls-11" d="M265.737,284.734,264.5,278.3l7.049-8.9,5.441,3.71Z" transform="translate(-210.908 -260.744)"/>
        <ellipse id="Ellipse_4" data-name="Ellipse 4" class="cls-11" cx="4.823" cy="2.597" rx="4.823" ry="2.597" transform="translate(51.705 105.599) rotate(-22.955)"/>
        <path id="Path_116" data-name="Path 116" class="cls-35" d="M682.96,367.71H229.494a6.98,6.98,0,0,0-5.194,2.226,7.4,7.4,0,0,0-2.226,5.194c0,1.36-2.721-11.13,1.237-11.13H676.53A7.233,7.233,0,0,1,682.96,367.71Z" transform="translate(-221.163 -238.36)"/>
        <rect id="Rectangle_67" data-name="Rectangle 67" class="cls-39" width="15.952" height="8.656" transform="translate(421.855 138.872)"/>
        <path id="Path_117" data-name="Path 117" class="cls-41" d="M562.8,461.062c0,7.791,15.334,7.3,15.334-35.862v62.078H562.8Z" transform="translate(-140.327 -223.879)"/>
        <path id="Path_118" data-name="Path 118" class="cls-41" d="M252.2,462.1c0,5.565,86.81,7.172,86.81-18.8v27.453H252.2Z" transform="translate(-213.819 -219.597)"/>
        <path id="Path_119" data-name="Path 119" class="cls-41" d="M252.2,412.1c0,5.565,86.81,7.172,86.81-18.8v27.453H252.2Z" transform="translate(-213.819 -231.427)"/>
        <path id="Path_120" data-name="Path 120" class="cls-35" d="M339.271,435.1H251.347v3.462H251.1l2.721,23.99,3.092-19.044a3.468,3.468,0,0,1,3.462-2.968h79.02V435.1Z" transform="translate(-214.079 -221.537)"/>
        <path id="Path_121" data-name="Path 121" class="cls-35" d="M339.223,384.9H251.3v5.441l1.113,20.528,4.081-17.807a3.43,3.43,0,0,1,3.339-2.721h79.391V384.9Z" transform="translate(-214.032 -233.415)"/>
        <path id="Path_122" data-name="Path 122" class="cls-35" d="M357.891,425.8H239.3V430l1.608,14.592,2.473-11.624a3.728,3.728,0,0,1,3.71-2.968h110.8Z" transform="translate(-216.871 -223.737)"/>
        <path id="Path_123" data-name="Path 123" class="cls-9" d="M328.721,354.73c0,4.7,26.093,7.049,26.093-11.13v18.178l-4.2,3.586H331.07L326,359.181l1.36-3.092Z" transform="translate(-196.357 -243.187)"/>
        <path id="Path_124" data-name="Path 124" class="cls-42" d="M387.471,367.883H384.5a9.833,9.833,0,0,1-8.656-5.07,9.35,9.35,0,0,1-1.237-4.823V273.53a7.442,7.442,0,0,1,7.42-7.42H515.584a11.258,11.258,0,0,1,4.946,1.237,9.975,9.975,0,0,0-8.656-4.946H380.793a9.922,9.922,0,0,0-9.893,9.893V354.28a9.976,9.976,0,0,0,9.893,9.893h2.968" transform="translate(-185.733 -262.4)"/>
        <path id="Path_125" data-name="Path 125" class="cls-42" d="M515.808,272.475V335.79a2.084,2.084,0,0,1-2.1,2.1H379.41a3.644,3.644,0,0,1-3.71-3.71H512.1V268.766a2.1,2.1,0,0,0-.124-.866A4.742,4.742,0,0,1,515.808,272.475Z" transform="translate(-184.597 -261.099)"/>
        <ellipse id="Ellipse_5" data-name="Ellipse 5" class="cls-11" cx="6.183" cy="2.226" rx="6.183" ry="2.226" transform="matrix(0.98, -0.2, 0.2, 0.98, 347.096, 116.879)"/>
        <path id="Path_126" data-name="Path 126" class="cls-43" d="M561.079,343.4h1.113a3.037,3.037,0,0,1,3.092,2.968v7.42a2.96,2.96,0,0,1-3.092,2.968h0a3.047,3.047,0,0,1-2.968-2.6l-1.113-7.42A2.944,2.944,0,0,1,561.079,343.4Z" transform="translate(-141.45 -243.234)"/>
      </g>
      <g id="lines" transform="translate(0 0.124)">
        <path id="Path_127" data-name="Path 127" class="cls-44" d="M300.458,297.607a9.13,9.13,0,0,1-9.151,9.151,8.875,8.875,0,0,1-6.307-2.6L297.861,291.3A8.875,8.875,0,0,1,300.458,297.607Z" transform="translate(-179.146 -255.562)"/>
        <path id="Path_128" data-name="Path 128" class="cls-45" d="M243,308.3" transform="translate(-189.084 -251.539)"/>
        <path id="Path_129" data-name="Path 129" class="cls-44" d="M272.464,272.964c-23.372-6.678-31.41,27.329-31.163,42.91" transform="translate(-189.487 -260.103)"/>
        <path id="Path_130" data-name="Path 130" class="cls-44" d="M236.429,320.4c-1.731,15.334,11.871,15.21,21.022,15.581,13.108.495,20.9,3.463,20.9,14.839" transform="translate(-190.674 -248.677)"/>
        <circle id="Ellipse_6" data-name="Ellipse 6" class="cls-46" cx="3.957" cy="3.957" r="3.957" transform="translate(283.432 87.923)"/>
        <path id="Path_131" data-name="Path 131" class="cls-47" d="M277.6,450.3h21.641" transform="translate(-180.897 -217.94)"/>
        <path id="Path_132" data-name="Path 132" class="cls-47" d="M277.6,400.1h21.641" transform="translate(-180.897 -229.818)"/>
        <path id="Path_133" data-name="Path 133" class="cls-44" d="M508.547,267.9H381.3a4.7,4.7,0,0,0-4.7,4.7v62.944H513.122V272.6A4.672,4.672,0,0,0,508.547,267.9Z" transform="translate(-157.472 -261.099)"/>
        <line id="Line_115" data-name="Line 115" class="cls-44" x2="18.797" transform="translate(259.194 117.849)"/>
        <line id="Line_116" data-name="Line 116" class="cls-44" x2="3.339" transform="translate(284.05 117.849)"/>
        <line id="Line_117" data-name="Line 117" class="cls-44" x1="23.001" transform="translate(439.121 104.988)"/>
        <line id="Line_118" data-name="Line 118" class="cls-44" x1="22.259" transform="translate(439.492 110.677)"/>
        <line id="Line_119" data-name="Line 119" class="cls-44" x1="16.694" y2="16.694" transform="translate(211.708 139.243)"/>
        <line id="Line_120" data-name="Line 120" class="cls-44" x1="8.78" y2="8.78" transform="translate(229.268 139.243)"/>
        <line id="Line_121" data-name="Line 121" class="cls-44" y2="13.479" transform="translate(160.018 201.321)"/>
        <line id="Line_122" data-name="Line 122" class="cls-44" y1="6.183" x2="6.059" transform="translate(381.248 160.389)"/>
        <path id="Path_134" data-name="Path 134" class="cls-44" d="M540.9,375" transform="translate(-118.597 -235.757)"/>
        <path id="Path_135" data-name="Path 135" class="cls-48" d="M485.356,353.023l-.371-4.7-.866-11.624L460.5,338.431l1.237,16.323a4.714,4.714,0,1,0,9.4-.742l9.522-.742,4.7-.247,4.7-.371a4.707,4.707,0,0,1-4.328,5.07l-18.92,1.36" transform="translate(-137.62 -244.82)"/>
        <path id="Path_136" data-name="Path 136" class="cls-48" d="M398.579,360.788l-17.56-2.35a4.351,4.351,0,0,1-3.71-4.946l4.328.618,4.328.618,8.9,1.237a4.277,4.277,0,0,0,3.71,4.823,4.351,4.351,0,0,0,4.946-3.71l1.979-15.21L383.616,338.9l-1.484,10.882-.618,4.328" transform="translate(-157.316 -244.299)"/>
        <line id="Line_123" data-name="Line 123" class="cls-48" y1="1.237" x2="16.323" transform="translate(327.084 98.187)"/>
        <line id="Line_124" data-name="Line 124" class="cls-48" y1="0.618" x2="8.409" transform="translate(327.95 103.999)"/>
        <line id="Line_125" data-name="Line 125" class="cls-48" y1="0.495" x2="5.07" transform="translate(338.585 103.381)"/>
        <g id="Group_3" data-name="Group 3">
          <line id="Line_126" data-name="Line 126" class="cls-49" x1="75.186" transform="translate(247.199 101.773)"/>
          <path id="Path_137" data-name="Path 137" class="cls-49" d="M383.761,364.173h-2.968a9.922,9.922,0,0,1-9.893-9.893V272.293a9.922,9.922,0,0,1,9.893-9.893H511.874a9.922,9.922,0,0,1,9.893,9.893V354.28a9.922,9.922,0,0,1-9.893,9.893h-6.8" transform="translate(-158.821 -262.4)"/>
          <line id="Line_127" data-name="Line 127" class="cls-50" x1="150.867" transform="translate(211.955 81.122)"/>
          <path id="Path_138" data-name="Path 138" class="cls-50" d="M285.34,353.7h7.42a8.814,8.814,0,0,1,8.78,8.78V365.2H247.5V362.48a8.814,8.814,0,0,1,8.78-8.78h7.42" transform="translate(-188.019 -240.797)"/>
          <path id="Path_139" data-name="Path 139" class="cls-50" d="M282.241,355.782H260.6A10.9,10.9,0,0,1,271.482,344.9,10.716,10.716,0,0,1,282.241,355.782Z" transform="translate(-184.919 -242.879)"/>
          <path id="Path_140" data-name="Path 140" class="cls-50" d="M278.733,273.279l-11.871,11.871a8.511,8.511,0,0,1,0-11.871A8.287,8.287,0,0,1,278.733,273.279Z" transform="translate(-184.008 -260.418)"/>
          <circle id="Ellipse_7" data-name="Ellipse 7" class="cls-50" cx="8.656" cy="8.656" r="8.656" transform="translate(40.19 55.029)"/>
          <line id="Line_128" data-name="Line 128" class="cls-50" x1="30.544" y1="30.421" transform="translate(51.443 72.589)"/>
          <path id="Path_141" data-name="Path 141" class="cls-50" d="M266.636,284.784a19.969,19.969,0,0,0,4.575,21.022l10.635,10.635,7.667-7.667,12.861-12.861,7.667-7.667-10.635-10.635a20.267,20.267,0,0,0-14.1-5.812,19.039,19.039,0,0,0-6.925,1.237" transform="translate(-183.783 -260.176)"/>
          <line id="Line_129" data-name="Line 129" class="cls-50" y1="31.039" x2="30.915" transform="translate(51.938 24.609)"/>
          <path id="Path_142" data-name="Path 142" class="cls-50" d="M346.239,368.365h-9.4a10.186,10.186,0,0,1-10.14-10.14V335.1h29.679v23.125A10.186,10.186,0,0,1,346.239,368.365Z" transform="translate(-169.279 -245.198)"/>
          <path id="Path_143" data-name="Path 143" class="cls-50" d="M675.492,377.839H227.22a7.441,7.441,0,0,1-7.42-7.42h0a7.441,7.441,0,0,1,7.42-7.42H675.492a7.442,7.442,0,0,1,7.42,7.42h0A7.442,7.442,0,0,1,675.492,377.839Z" transform="translate(-194.573 -238.597)"/>
          <path id="Path_144" data-name="Path 144" class="cls-50" d="M350.7,356.776h2.721a8.022,8.022,0,0,0,8.038-8.038,8.022,8.022,0,0,0-8.038-8.038H350.7" transform="translate(-163.6 -243.873)"/>
          <rect id="Rectangle_68" data-name="Rectangle 68" class="cls-50" width="118.468" height="124.156" transform="translate(48.846 139.243)"/>
          <line id="Line_130" data-name="Line 130" class="cls-50" x1="118.468" transform="translate(48.846 201.321)"/>
          <rect id="Rectangle_69" data-name="Rectangle 69" class="cls-50" width="87.923" height="37.593" transform="translate(64.057 213.563)"/>
          <rect id="Rectangle_70" data-name="Rectangle 70" class="cls-50" width="87.923" height="37.593" transform="translate(64.057 151.485)"/>
          <path id="Path_145" data-name="Path 145" class="cls-50" d="M451.828,344.7c1.979,9.027,6.554,14.839,14.963,14.839a6.312,6.312,0,0,1,4.7,2.226,8.479,8.479,0,0,1,1.979,5.565H403.6c0-4.328,2.968-7.791,6.678-7.791a14.965,14.965,0,0,0,12.49-6.183c1.731-2.35,1.731-5.194,2.473-8.656" transform="translate(-151.084 -242.927)"/>
          <rect id="Rectangle_71" data-name="Rectangle 71" class="cls-50" width="15.334" height="124.156" transform="translate(449.385 139.243)"/>
          <rect id="Rectangle_72" data-name="Rectangle 72" class="cls-51" width="281.948" height="27.329" transform="translate(167.437 139.243)"/>
          <path id="Path_146" data-name="Path 146" class="cls-50" d="M560.554,368.371H571.56c2.473,0,4.452-2.226,4.7-5.317l1.855-22.754H554l1.855,22.754C556.1,366.145,558.2,368.371,560.554,368.371Z" transform="translate(-115.497 -243.968)"/>
          <line id="Line_131" data-name="Line 131" class="cls-50" x2="486.236" transform="translate(19.168 263.399)"/>
          <line id="Line_132" data-name="Line 132" class="cls-50" x1="9.893" transform="translate(0 263.399)"/>
          <line id="Line_133" data-name="Line 133" class="cls-50" transform="translate(514.06 263.399)"/>
          <path id="Path_147" data-name="Path 147" class="cls-50" d="M498.8,364.893c.247-5.441,6.43-9.893,13.85-9.893s13.6,4.452,13.974,9.893" transform="translate(-128.558 -240.49)"/>
          <line id="Line_134" data-name="Line 134" class="cls-50" x1="2.844" y2="20.651" transform="translate(458.041 75.681)"/>
          <line id="Line_135" data-name="Line 135" class="cls-50" y1="14.221" transform="translate(449.509 82.111)"/>
        </g>
        <line id="Line_136" data-name="Line 136" class="cls-48" x2="10.635" y2="1.36" transform="translate(228.65 104.865)"/>
        <line id="Line_137" data-name="Line 137" class="cls-48" x2="12.984" y2="1.731" transform="translate(229.515 100.289)"/>
        <line id="Line_138" data-name="Line 138" class="cls-44" transform="translate(103.505 40.932)"/>
        <line id="Line_139" data-name="Line 139" class="cls-44" x1="7.049" y2="7.172" transform="translate(93.364 44.023)"/>
      </g>
    </g>
  </g>
</svg>
